<svg xmlns="http://www.w3.org/2000/svg" viewBox="0 0 417.27 383.45"><defs><style>.cls-1{fill:#ebebeb;}.cls-2{fill:#dbdbdb;}.cls-3{fill:#a6a6a6;}.cls-4{fill:#c7c7c7;}.cls-5{fill:#fff;}.cls-6{fill:#455a64;}.cls-7{fill:#37474f;}.cls-8{fill:#263238;}.cls-14,.cls-9{fill:#ffc727;}.cls-10,.cls-11{opacity:0.3;}.cls-12,.cls-13{opacity:0.2;}.cls-14{opacity:0.1;}</style></defs><title>4760010</title><g id="Background_Complete" data-name="Background Complete"><path class="cls-1" d="M454.71,190.21h-85.6S377.6,167,390.66,167s17.15,16,17.15,16,8.81-8.69,16.05-8.69,13.54,11.49,13.54,11.49S447.63,179.65,454.71,190.21Z" transform="translate(-41.36 -51.95)"/><path class="cls-1" d="M389.11,99.42h-40s8.94-13,16-13,9.12,8.64,9.12,8.64,5-4,9.58-3.31S389.11,99.42,389.11,99.42Z" transform="translate(-41.36 -51.95)"/><path class="cls-1" d="M123.21,158.46H45.29S56,134.64,67.38,133.15s16.87,17.7,16.87,17.7,7.36-6.78,13.15-6.78S107.66,153,107.66,153,119.24,146.88,123.21,158.46Z" transform="translate(-41.36 -51.95)"/><path class="cls-1" d="M179.93,69.47H127.29s9-17.26,18.85-17.52,15,13.07,15,13.07S176.37,52.77,179.93,69.47Z" transform="translate(-41.36 -51.95)"/><path class="cls-1" d="M153.61,188.66H118.08s6.11-11.65,12.73-11.81,10.1,8.81,10.1,8.81S151.21,177.4,153.61,188.66Z" transform="translate(-41.36 -51.95)"/></g><g id="Building"><rect class="cls-2" x="275.69" y="155.81" width="43.33" height="227.14"/><rect class="cls-1" x="282.41" y="163.18" width="8.42" height="8.67"/><rect class="cls-1" x="293.19" y="163.18" width="8.42" height="8.67"/><rect class="cls-1" x="282.41" y="177.91" width="8.42" height="8.67"/><rect class="cls-1" x="293.19" y="177.91" width="8.42" height="8.67"/><rect class="cls-1" x="282.41" y="192.63" width="8.42" height="8.67"/><rect class="cls-1" x="293.19" y="192.63" width="8.42" height="8.67"/><rect class="cls-1" x="282.41" y="207.36" width="8.42" height="8.67"/><rect class="cls-1" x="293.19" y="207.36" width="8.42" height="8.67"/><rect class="cls-1" x="282.41" y="222.08" width="8.42" height="8.67"/><rect class="cls-1" x="293.19" y="222.08" width="8.42" height="8.67"/><rect class="cls-1" x="282.41" y="236.81" width="8.42" height="8.67"/><rect class="cls-1" x="293.19" y="236.81" width="8.42" height="8.67"/><rect class="cls-1" x="282.41" y="251.53" width="8.42" height="8.67"/><rect class="cls-1" x="293.19" y="251.53" width="8.42" height="8.67"/><rect class="cls-1" x="282.41" y="266.26" width="8.42" height="8.67"/><rect class="cls-1" x="293.19" y="266.26" width="8.42" height="8.67"/><rect class="cls-1" x="282.41" y="280.98" width="8.42" height="8.67"/><rect class="cls-1" x="293.19" y="280.98" width="8.42" height="8.67"/><rect class="cls-1" x="282.41" y="295.71" width="8.42" height="8.67"/><rect class="cls-1" x="293.19" y="295.71" width="8.42" height="8.67"/><rect class="cls-1" x="282.41" y="310.43" width="8.42" height="8.67"/><rect class="cls-1" x="293.19" y="310.43" width="8.42" height="8.67"/><rect class="cls-1" x="282.41" y="325.16" width="8.42" height="8.67"/><rect class="cls-1" x="293.19" y="325.16" width="8.42" height="8.67"/><rect class="cls-1" x="282.41" y="339.88" width="8.42" height="8.67"/><rect class="cls-1" x="293.19" y="339.88" width="8.42" height="8.67"/><rect class="cls-1" x="282.41" y="354.61" width="8.42" height="8.67"/><rect class="cls-1" x="345.23" y="406.56" width="8.42" height="8.67" transform="translate(657.52 769.84) rotate(180)"/><rect class="cls-1" x="345.23" y="391.84" width="8.42" height="8.67" transform="translate(657.52 740.39) rotate(180)"/><rect class="cls-1" x="345.23" y="377.11" width="8.42" height="8.67" transform="translate(657.52 710.94) rotate(180)"/><rect class="cls-1" x="345.23" y="362.39" width="8.42" height="8.67" transform="translate(657.52 681.49) rotate(180)"/><rect class="cls-1" x="345.23" y="347.66" width="8.42" height="8.67" transform="translate(657.52 652.04) rotate(180)"/><rect class="cls-1" x="345.23" y="332.94" width="8.42" height="8.67" transform="translate(657.52 622.59) rotate(180)"/><rect class="cls-1" x="345.23" y="318.21" width="8.42" height="8.67" transform="translate(657.52 593.14) rotate(180)"/><rect class="cls-1" x="345.23" y="303.49" width="8.42" height="8.67" transform="translate(657.52 563.69) rotate(180)"/><rect class="cls-1" x="345.23" y="288.76" width="8.42" height="8.67" transform="translate(657.52 534.24) rotate(180)"/><rect class="cls-1" x="345.23" y="274.04" width="8.42" height="8.67" transform="translate(657.52 504.79) rotate(180)"/><rect class="cls-1" x="345.23" y="259.31" width="8.42" height="8.67" transform="translate(657.52 475.34) rotate(180)"/><rect class="cls-1" x="345.23" y="244.59" width="8.42" height="8.67" transform="translate(657.52 445.89) rotate(180)"/><rect class="cls-1" x="345.23" y="229.86" width="8.42" height="8.67" transform="translate(657.52 416.44) rotate(180)"/><rect class="cls-1" x="345.23" y="215.14" width="8.42" height="8.67" transform="translate(657.52 386.99) rotate(180)"/><rect class="cls-1" x="293.19" y="354.61" width="8.42" height="8.67"/><rect class="cls-3" x="319.02" y="155.81" width="34.16" height="227.14"/><rect class="cls-4" x="384.07" y="406.56" width="6.96" height="8.67" transform="translate(733.73 769.84) rotate(180)"/><rect class="cls-4" x="375.17" y="406.56" width="6.96" height="8.67" transform="translate(715.93 769.84) rotate(180)"/><rect class="cls-4" x="384.07" y="391.84" width="6.96" height="8.67" transform="translate(733.73 740.39) rotate(180)"/><rect class="cls-4" x="375.17" y="391.84" width="6.96" height="8.67" transform="translate(715.93 740.39) rotate(180)"/><rect class="cls-4" x="384.07" y="377.11" width="6.96" height="8.67" transform="translate(733.73 710.94) rotate(180)"/><rect class="cls-4" x="375.17" y="377.11" width="6.96" height="8.67" transform="translate(715.93 710.94) rotate(180)"/><rect class="cls-4" x="384.07" y="362.39" width="6.96" height="8.67" transform="translate(733.73 681.49) rotate(180)"/><rect class="cls-4" x="375.17" y="362.39" width="6.96" height="8.67" transform="translate(715.93 681.49) rotate(180)"/><rect class="cls-4" x="384.07" y="347.66" width="6.96" height="8.67" transform="translate(733.73 652.04) rotate(180)"/><rect class="cls-4" x="375.17" y="347.66" width="6.96" height="8.67" transform="translate(715.93 652.04) rotate(180)"/><rect class="cls-4" x="384.07" y="332.94" width="6.96" height="8.67" transform="translate(733.73 622.59) rotate(180)"/><rect class="cls-4" x="375.17" y="332.94" width="6.96" height="8.67" transform="translate(715.93 622.59) rotate(180)"/><rect class="cls-4" x="384.07" y="318.21" width="6.96" height="8.67" transform="translate(733.73 593.14) rotate(180)"/><rect class="cls-4" x="375.17" y="318.21" width="6.96" height="8.67" transform="translate(715.93 593.14) rotate(180)"/><rect class="cls-4" x="384.07" y="303.49" width="6.96" height="8.67" transform="translate(733.73 563.69) rotate(180)"/><rect class="cls-4" x="375.17" y="303.49" width="6.96" height="8.67" transform="translate(715.93 563.69) rotate(180)"/><rect class="cls-4" x="384.07" y="288.76" width="6.96" height="8.67" transform="translate(733.73 534.24) rotate(180)"/><rect class="cls-4" x="375.17" y="288.76" width="6.96" height="8.67" transform="translate(715.93 534.24) rotate(180)"/><rect class="cls-4" x="384.07" y="274.04" width="6.96" height="8.67" transform="translate(733.73 504.79) rotate(180)"/><rect class="cls-4" x="375.17" y="274.04" width="6.96" height="8.67" transform="translate(715.93 504.79) rotate(180)"/><rect class="cls-4" x="384.07" y="259.31" width="6.96" height="8.67" transform="translate(733.73 475.34) rotate(180)"/><rect class="cls-4" x="375.17" y="259.31" width="6.96" height="8.67" transform="translate(715.93 475.34) rotate(180)"/><rect class="cls-4" x="384.07" y="244.59" width="6.96" height="8.67" transform="translate(733.73 445.89) rotate(180)"/><rect class="cls-4" x="375.17" y="244.59" width="6.96" height="8.67" transform="translate(715.93 445.89) rotate(180)"/><rect class="cls-4" x="384.07" y="229.86" width="6.96" height="8.67" transform="translate(733.73 416.44) rotate(180)"/><rect class="cls-4" x="375.17" y="229.86" width="6.96" height="8.67" transform="translate(715.93 416.44) rotate(180)"/><rect class="cls-4" x="384.07" y="215.14" width="6.96" height="8.67" transform="translate(733.73 386.99) rotate(180)"/><rect class="cls-4" x="324.98" y="163.18" width="6.96" height="8.67"/><rect class="cls-4" x="324.98" y="177.91" width="6.96" height="8.67"/><rect class="cls-4" x="324.98" y="192.63" width="6.96" height="8.67"/><rect class="cls-4" x="324.98" y="207.36" width="6.96" height="8.67"/><rect class="cls-4" x="324.98" y="222.08" width="6.96" height="8.67"/><rect class="cls-4" x="324.98" y="236.81" width="6.96" height="8.67"/><rect class="cls-4" x="324.98" y="251.53" width="6.96" height="8.67"/><rect class="cls-4" x="324.98" y="266.26" width="6.96" height="8.67"/><rect class="cls-4" x="324.98" y="280.98" width="6.96" height="8.67"/><rect class="cls-4" x="324.98" y="295.71" width="6.96" height="8.67"/><rect class="cls-4" x="324.98" y="310.43" width="6.96" height="8.67"/><rect class="cls-4" x="324.98" y="325.16" width="6.96" height="8.67"/><rect class="cls-4" x="324.98" y="339.88" width="6.96" height="8.67"/><rect class="cls-4" x="324.98" y="354.61" width="6.96" height="8.67"/><rect class="cls-4" x="375.17" y="215.14" width="6.96" height="8.67" transform="translate(715.93 386.99) rotate(180)"/><rect class="cls-1" x="53.81" y="150.85" width="45.2" height="232.1"/><rect class="cls-4" x="52.73" y="146.23" width="46.29" height="4.62"/><rect class="cls-5" x="57.9" y="157.66" width="4.58" height="225.29"/><rect class="cls-5" x="66.01" y="157.66" width="4.58" height="225.29"/><rect class="cls-5" x="74.12" y="157.66" width="4.58" height="225.29"/><rect class="cls-5" x="82.24" y="157.66" width="4.58" height="225.29"/><rect class="cls-5" x="90.35" y="157.66" width="4.58" height="225.29"/><rect class="cls-1" x="57.9" y="163.5" width="4.58" height="9.12"/><rect class="cls-1" x="66.01" y="163.5" width="4.58" height="9.12"/><rect class="cls-1" x="74.12" y="163.5" width="4.58" height="9.12"/><rect class="cls-1" x="82.24" y="163.5" width="4.58" height="9.12"/><rect class="cls-1" x="90.35" y="163.5" width="4.58" height="9.12"/><rect class="cls-1" x="57.9" y="178.33" width="4.58" height="9.12"/><rect class="cls-1" x="66.01" y="178.33" width="4.58" height="9.12"/><rect class="cls-1" x="74.12" y="178.33" width="4.58" height="9.12"/><rect class="cls-1" x="82.24" y="178.33" width="4.58" height="9.12"/><rect class="cls-1" x="90.35" y="178.33" width="4.58" height="9.12"/><rect class="cls-1" x="57.9" y="193.16" width="4.58" height="9.12"/><rect class="cls-1" x="66.01" y="193.16" width="4.58" height="9.12"/><rect class="cls-1" x="74.12" y="193.16" width="4.58" height="9.12"/><rect class="cls-1" x="82.24" y="193.16" width="4.58" height="9.12"/><rect class="cls-1" x="90.35" y="193.16" width="4.58" height="9.12"/><rect class="cls-1" x="57.9" y="207.99" width="4.58" height="9.12"/><rect class="cls-1" x="66.01" y="207.99" width="4.58" height="9.12"/><rect class="cls-1" x="74.12" y="207.99" width="4.58" height="9.12"/><rect class="cls-1" x="82.24" y="207.99" width="4.58" height="9.12"/><rect class="cls-1" x="90.35" y="207.99" width="4.58" height="9.12"/><rect class="cls-1" x="57.9" y="222.81" width="4.58" height="9.12"/><rect class="cls-1" x="66.01" y="222.81" width="4.58" height="9.12"/><rect class="cls-1" x="74.12" y="222.81" width="4.58" height="9.12"/><rect class="cls-1" x="82.24" y="222.81" width="4.58" height="9.12"/><rect class="cls-1" x="90.35" y="222.81" width="4.58" height="9.12"/><rect class="cls-1" x="57.9" y="237.64" width="4.58" height="9.12"/><rect class="cls-1" x="66.01" y="237.64" width="4.58" height="9.12"/><rect class="cls-1" x="74.12" y="237.64" width="4.58" height="9.12"/><rect class="cls-1" x="82.24" y="237.64" width="4.58" height="9.12"/><rect class="cls-1" x="90.35" y="237.64" width="4.58" height="9.12"/><rect class="cls-1" x="57.9" y="252.47" width="4.58" height="9.12"/><rect class="cls-1" x="66.01" y="252.47" width="4.58" height="9.12"/><rect class="cls-1" x="74.12" y="252.47" width="4.58" height="9.12"/><rect class="cls-1" x="82.24" y="252.47" width="4.58" height="9.12"/><rect class="cls-1" x="90.35" y="252.47" width="4.58" height="9.12"/><rect class="cls-1" x="57.9" y="267.3" width="4.58" height="9.12"/><rect class="cls-1" x="66.01" y="267.3" width="4.58" height="9.12"/><rect class="cls-1" x="74.12" y="267.3" width="4.58" height="9.12"/><rect class="cls-1" x="82.24" y="267.3" width="4.58" height="9.12"/><rect class="cls-1" x="90.35" y="267.3" width="4.58" height="9.12"/><rect class="cls-1" x="57.9" y="282.13" width="4.58" height="9.12"/><rect class="cls-1" x="66.01" y="282.13" width="4.58" height="9.12"/><rect class="cls-1" x="74.12" y="282.13" width="4.58" height="9.12"/><rect class="cls-1" x="82.24" y="282.13" width="4.58" height="9.12"/><rect class="cls-1" x="90.35" y="282.13" width="4.58" height="9.12"/><rect class="cls-1" x="57.9" y="296.95" width="4.58" height="9.12"/><rect class="cls-1" x="66.01" y="296.95" width="4.58" height="9.12"/><rect class="cls-1" x="74.12" y="296.95" width="4.58" height="9.12"/><rect class="cls-1" x="82.24" y="296.95" width="4.58" height="9.12"/><rect class="cls-1" x="90.35" y="296.95" width="4.58" height="9.12"/><rect class="cls-1" x="57.9" y="311.78" width="4.58" height="9.12"/><rect class="cls-1" x="66.01" y="311.78" width="4.58" height="9.12"/><rect class="cls-1" x="74.12" y="311.78" width="4.58" height="9.12"/><rect class="cls-1" x="82.24" y="311.78" width="4.58" height="9.12"/><rect class="cls-1" x="90.35" y="311.78" width="4.58" height="9.12"/><rect class="cls-1" x="57.9" y="326.61" width="4.58" height="9.12"/><rect class="cls-1" x="66.01" y="326.61" width="4.58" height="9.12"/><rect class="cls-1" x="74.12" y="326.61" width="4.58" height="9.12"/><rect class="cls-1" x="82.24" y="326.61" width="4.58" height="9.12"/><rect class="cls-1" x="90.35" y="326.61" width="4.58" height="9.12"/><rect class="cls-1" x="57.9" y="341.44" width="4.58" height="9.12"/><rect class="cls-1" x="66.01" y="341.44" width="4.58" height="9.12"/><rect class="cls-1" x="74.12" y="341.44" width="4.58" height="9.12"/><rect class="cls-1" x="82.24" y="341.44" width="4.58" height="9.12"/><rect class="cls-1" x="90.35" y="341.44" width="4.58" height="9.12"/><rect class="cls-1" x="57.9" y="356.27" width="4.58" height="26.69"/><rect class="cls-1" x="66.01" y="356.27" width="4.58" height="26.69"/><rect class="cls-1" x="74.12" y="356.27" width="4.58" height="26.69"/><rect class="cls-1" x="82.24" y="356.27" width="4.58" height="26.69"/><rect class="cls-1" x="90.35" y="356.27" width="4.58" height="26.69"/><rect class="cls-2" x="99.02" y="150.85" width="29.02" height="232.1"/><rect class="cls-4" x="99.02" y="146.23" width="30.28" height="4.62"/><rect class="cls-4" x="103.1" y="157.66" width="4.58" height="225.29"/><rect class="cls-4" x="111.22" y="157.66" width="4.58" height="225.29"/><rect class="cls-4" x="119.33" y="157.66" width="4.58" height="225.29"/><rect class="cls-2" x="103.1" y="163.5" width="4.58" height="9.12"/><rect class="cls-2" x="111.22" y="163.5" width="4.58" height="9.12"/><rect class="cls-2" x="119.33" y="163.5" width="4.58" height="9.12"/><rect class="cls-2" x="103.1" y="178.33" width="4.58" height="9.12"/><rect class="cls-2" x="111.22" y="178.33" width="4.58" height="9.12"/><rect class="cls-2" x="119.33" y="178.33" width="4.58" height="9.12"/><rect class="cls-2" x="103.1" y="193.16" width="4.58" height="9.12"/><rect class="cls-2" x="111.22" y="193.16" width="4.58" height="9.12"/><rect class="cls-2" x="119.33" y="193.16" width="4.58" height="9.12"/><rect class="cls-2" x="103.1" y="207.99" width="4.58" height="9.12"/><rect class="cls-2" x="111.22" y="207.99" width="4.58" height="9.12"/><rect class="cls-2" x="119.33" y="207.99" width="4.58" height="9.12"/><rect class="cls-2" x="103.1" y="222.81" width="4.58" height="9.12"/><rect class="cls-2" x="111.22" y="222.81" width="4.58" height="9.12"/><rect class="cls-2" x="119.33" y="222.81" width="4.58" height="9.12"/><rect class="cls-2" x="103.1" y="237.64" width="4.58" height="9.12"/><rect class="cls-2" x="111.22" y="237.64" width="4.58" height="9.12"/><rect class="cls-2" x="119.33" y="237.64" width="4.58" height="9.12"/><rect class="cls-2" x="103.1" y="252.47" width="4.58" height="9.12"/><rect class="cls-2" x="111.22" y="252.47" width="4.58" height="9.12"/><rect class="cls-2" x="119.33" y="252.47" width="4.58" height="9.12"/><rect class="cls-2" x="103.1" y="267.3" width="4.58" height="9.12"/><rect class="cls-2" x="111.22" y="267.3" width="4.58" height="9.12"/><rect class="cls-2" x="119.33" y="267.3" width="4.58" height="9.12"/><rect class="cls-2" x="103.1" y="282.13" width="4.58" height="9.12"/><rect class="cls-2" x="111.22" y="282.13" width="4.58" height="9.12"/><rect class="cls-2" x="119.33" y="282.13" width="4.58" height="9.12"/><rect class="cls-2" x="103.1" y="296.95" width="4.58" height="9.12"/><rect class="cls-2" x="111.22" y="296.95" width="4.58" height="9.12"/><rect class="cls-2" x="119.33" y="296.95" width="4.58" height="9.12"/><rect class="cls-2" x="103.1" y="311.78" width="4.58" height="9.12"/><rect class="cls-2" x="111.22" y="311.78" width="4.58" height="9.12"/><rect class="cls-2" x="119.33" y="311.78" width="4.58" height="9.12"/><rect class="cls-2" x="103.1" y="326.61" width="4.58" height="9.12"/><rect class="cls-2" x="111.22" y="326.61" width="4.58" height="9.12"/><rect class="cls-2" x="119.33" y="326.61" width="4.58" height="9.12"/><rect class="cls-2" x="103.1" y="341.44" width="4.58" height="9.12"/><rect class="cls-2" x="111.22" y="341.44" width="4.58" height="9.12"/><rect class="cls-2" x="119.33" y="341.44" width="4.58" height="9.12"/><rect class="cls-2" x="103.1" y="356.27" width="4.58" height="26.69"/><rect class="cls-2" x="111.22" y="356.27" width="4.58" height="26.69"/><rect class="cls-2" x="119.33" y="356.27" width="4.58" height="26.69"/><rect class="cls-1" x="3.35" y="220.36" width="42.87" height="162.59"/><rect class="cls-4" x="9.45" y="209.58" width="36.77" height="10.78"/><rect class="cls-2" x="8.05" y="225.99" width="33.47" height="121.54"/><rect class="cls-5" x="8.05" y="237.59" width="33.47" height="2.87"/><rect class="cls-5" x="8.05" y="249.49" width="33.47" height="2.87"/><rect class="cls-5" x="8.05" y="261.39" width="33.47" height="2.87"/><rect class="cls-5" x="8.05" y="273.28" width="33.47" height="2.87"/><rect class="cls-5" x="8.05" y="285.18" width="33.47" height="2.87"/><rect class="cls-5" x="8.05" y="297.08" width="33.47" height="2.87"/><rect class="cls-5" x="8.05" y="308.97" width="33.47" height="2.87"/><rect class="cls-5" x="8.05" y="320.87" width="33.47" height="2.87"/><rect class="cls-5" x="8.05" y="332.77" width="33.47" height="2.87"/><rect class="cls-5" x="8.05" y="344.66" width="33.47" height="2.87"/><rect class="cls-2" x="46.22" y="220.36" width="26.85" height="162.59"/><rect class="cls-3" x="46.22" y="209.58" width="22.82" height="10.78"/><rect class="cls-4" x="49.92" y="225.99" width="20.65" height="121.54"/><rect class="cls-5" x="49.92" y="237.59" width="20.65" height="2.87"/><rect class="cls-5" x="49.92" y="249.49" width="20.65" height="2.87"/><rect class="cls-5" x="49.92" y="261.39" width="20.65" height="2.87"/><rect class="cls-5" x="49.92" y="273.28" width="20.65" height="2.87"/><rect class="cls-5" x="49.92" y="285.18" width="20.65" height="2.87"/><rect class="cls-5" x="49.92" y="297.08" width="20.65" height="2.87"/><rect class="cls-5" x="49.92" y="308.97" width="20.65" height="2.87"/><rect class="cls-5" x="49.92" y="320.87" width="20.65" height="2.87"/><rect class="cls-5" x="49.92" y="332.77" width="20.65" height="2.87"/><rect class="cls-5" x="49.92" y="344.66" width="20.65" height="2.87"/><rect class="cls-2" x="355.68" y="223.11" width="22.9" height="27.05"/><rect class="cls-4" x="378.57" y="223.11" width="14.52" height="28.04"/><rect class="cls-2" x="379.65" y="235.05" width="14.41" height="16.1"/><rect class="cls-4" x="394.06" y="235.05" width="8.99" height="16.1"/><rect class="cls-1" x="346.9" y="248.39" width="37.02" height="134.56"/><rect class="cls-5" x="351.13" y="254.18" width="11.64" height="4.76"/><rect class="cls-5" x="366.02" y="254.18" width="11.64" height="4.76"/><rect class="cls-5" x="351.13" y="262.26" width="11.64" height="4.76"/><rect class="cls-5" x="366.02" y="262.26" width="11.64" height="4.76"/><rect class="cls-5" x="351.13" y="270.33" width="11.64" height="4.76"/><rect class="cls-5" x="366.02" y="270.33" width="11.64" height="4.76"/><rect class="cls-5" x="351.13" y="278.41" width="11.64" height="4.76"/><rect class="cls-5" x="366.02" y="278.41" width="11.64" height="4.76"/><rect class="cls-5" x="351.13" y="286.48" width="11.64" height="4.76"/><rect class="cls-5" x="366.02" y="286.48" width="11.64" height="4.76"/><rect class="cls-5" x="351.13" y="294.56" width="11.64" height="4.76"/><rect class="cls-5" x="366.02" y="294.56" width="11.64" height="4.76"/><rect class="cls-5" x="351.13" y="302.64" width="11.64" height="4.76"/><rect class="cls-5" x="366.02" y="302.64" width="11.64" height="4.76"/><rect class="cls-5" x="351.13" y="310.71" width="11.64" height="4.76"/><rect class="cls-5" x="366.02" y="310.71" width="11.64" height="4.76"/><rect class="cls-5" x="351.13" y="318.79" width="11.64" height="4.76"/><rect class="cls-5" x="366.02" y="318.79" width="11.64" height="4.76"/><rect class="cls-5" x="351.13" y="326.87" width="11.64" height="4.76"/><rect class="cls-5" x="366.02" y="326.87" width="11.64" height="4.76"/><rect class="cls-5" x="351.13" y="334.94" width="11.64" height="4.76"/><rect class="cls-5" x="366.02" y="334.94" width="11.64" height="4.76"/><rect class="cls-5" x="351.13" y="343.02" width="11.64" height="4.76"/><rect class="cls-5" x="366.02" y="343.02" width="11.64" height="4.76"/><rect class="cls-5" x="351.13" y="351.1" width="11.64" height="4.76"/><rect class="cls-5" x="366.02" y="351.1" width="11.64" height="4.76"/><rect class="cls-5" x="351.13" y="359.17" width="11.64" height="4.76"/><rect class="cls-5" x="366.02" y="359.17" width="11.64" height="4.76"/><rect class="cls-4" x="383.92" y="248.39" width="30" height="134.56"/><rect class="cls-1" x="442.72" y="411.12" width="9.56" height="4.76" transform="translate(853.63 775.05) rotate(180)"/><rect class="cls-1" x="430.49" y="411.12" width="9.56" height="4.76" transform="translate(829.17 775.05) rotate(180)"/><rect class="cls-1" x="442.72" y="403.05" width="9.56" height="4.76" transform="translate(853.63 758.9) rotate(180)"/><rect class="cls-1" x="430.49" y="403.05" width="9.56" height="4.76" transform="translate(829.17 758.9) rotate(180)"/><rect class="cls-1" x="442.72" y="394.97" width="9.56" height="4.76" transform="translate(853.63 742.75) rotate(180)"/><rect class="cls-1" x="430.49" y="394.97" width="9.56" height="4.76" transform="translate(829.17 742.75) rotate(180)"/><rect class="cls-1" x="442.72" y="386.9" width="9.56" height="4.76" transform="translate(853.63 726.6) rotate(180)"/><rect class="cls-1" x="430.49" y="386.9" width="9.56" height="4.76" transform="translate(829.17 726.6) rotate(180)"/><rect class="cls-1" x="442.72" y="378.82" width="9.56" height="4.76" transform="translate(853.63 710.44) rotate(180)"/><rect class="cls-1" x="430.49" y="378.82" width="9.56" height="4.76" transform="translate(829.17 710.44) rotate(180)"/><rect class="cls-1" x="442.72" y="370.74" width="9.56" height="4.76" transform="translate(853.63 694.29) rotate(180)"/><rect class="cls-1" x="430.49" y="370.74" width="9.56" height="4.76" transform="translate(829.17 694.29) rotate(180)"/><rect class="cls-1" x="442.72" y="362.67" width="9.56" height="4.76" transform="translate(853.63 678.14) rotate(180)"/><rect class="cls-1" x="430.49" y="362.67" width="9.56" height="4.76" transform="translate(829.17 678.14) rotate(180)"/><rect class="cls-1" x="442.72" y="354.59" width="9.56" height="4.76" transform="translate(853.63 661.98) rotate(180)"/><rect class="cls-1" x="430.49" y="354.59" width="9.56" height="4.76" transform="translate(829.17 661.98) rotate(180)"/><rect class="cls-1" x="442.72" y="346.51" width="9.56" height="4.76" transform="translate(853.63 645.83) rotate(180)"/><rect class="cls-1" x="430.49" y="346.51" width="9.56" height="4.76" transform="translate(829.17 645.83) rotate(180)"/><rect class="cls-1" x="442.72" y="338.44" width="9.56" height="4.76" transform="translate(853.63 629.68) rotate(180)"/><rect class="cls-1" x="430.49" y="338.44" width="9.56" height="4.76" transform="translate(829.17 629.68) rotate(180)"/><rect class="cls-1" x="442.72" y="330.36" width="9.56" height="4.76" transform="translate(853.63 613.53) rotate(180)"/><rect class="cls-1" x="430.49" y="330.36" width="9.56" height="4.76" transform="translate(829.17 613.53) rotate(180)"/><rect class="cls-1" x="442.72" y="322.28" width="9.56" height="4.76" transform="translate(853.63 597.37) rotate(180)"/><rect class="cls-1" x="430.49" y="322.28" width="9.56" height="4.76" transform="translate(829.17 597.37) rotate(180)"/><rect class="cls-1" x="442.72" y="314.21" width="9.56" height="4.76" transform="translate(853.63 581.22) rotate(180)"/><rect class="cls-1" x="430.49" y="314.21" width="9.56" height="4.76" transform="translate(829.17 581.22) rotate(180)"/><rect class="cls-1" x="442.72" y="306.13" width="9.56" height="4.76" transform="translate(853.63 565.07) rotate(180)"/><rect class="cls-1" x="430.49" y="306.13" width="9.56" height="4.76" transform="translate(829.17 565.07) rotate(180)"/><rect class="cls-4" x="206.52" y="295.27" width="43.67" height="87.68"/><rect class="cls-2" x="213.39" y="302.86" width="7.73" height="5.37"/><rect class="cls-2" x="213.39" y="314.34" width="7.73" height="5.37"/><rect class="cls-2" x="213.39" y="325.81" width="7.73" height="5.37"/><rect class="cls-2" x="213.39" y="337.28" width="7.73" height="5.37"/><rect class="cls-2" x="213.39" y="348.76" width="7.73" height="5.37"/><rect class="cls-2" x="213.39" y="360.23" width="7.73" height="5.37"/><rect class="cls-2" x="213.39" y="371.7" width="7.73" height="5.37"/><rect class="cls-2" x="224.5" y="302.86" width="7.73" height="5.37"/><rect class="cls-2" x="224.5" y="314.34" width="7.73" height="5.37"/><rect class="cls-2" x="224.5" y="325.81" width="7.73" height="5.37"/><rect class="cls-2" x="224.5" y="337.28" width="7.73" height="5.37"/><rect class="cls-2" x="224.5" y="348.76" width="7.73" height="5.37"/><rect class="cls-2" x="224.5" y="360.23" width="7.73" height="5.37"/><rect class="cls-2" x="224.5" y="371.7" width="7.73" height="5.37"/><rect class="cls-2" x="235.59" y="302.86" width="7.73" height="5.37"/><rect class="cls-2" x="235.59" y="314.34" width="7.73" height="5.37"/><rect class="cls-2" x="235.59" y="325.81" width="7.73" height="5.37"/><rect class="cls-2" x="235.59" y="337.28" width="7.73" height="5.37"/><rect class="cls-2" x="235.59" y="348.76" width="7.73" height="5.37"/><rect class="cls-2" x="235.59" y="360.23" width="7.73" height="5.37"/><rect class="cls-2" x="235.59" y="371.7" width="7.73" height="5.37"/><rect class="cls-2" x="221.11" y="286.14" width="29.07" height="9.14"/><rect class="cls-1" x="231.76" y="280.48" width="18.43" height="5.66"/><rect class="cls-3" x="250.19" y="295.27" width="30.64" height="87.68"/><rect class="cls-4" x="312.76" y="422.8" width="6.29" height="5.37" transform="translate(590.45 799.02) rotate(180)"/><rect class="cls-4" x="312.76" y="411.32" width="6.29" height="5.37" transform="translate(590.45 776.07) rotate(180)"/><rect class="cls-4" x="312.76" y="399.85" width="6.29" height="5.37" transform="translate(590.45 753.12) rotate(180)"/><rect class="cls-4" x="312.76" y="388.38" width="6.29" height="5.37" transform="translate(590.45 730.17) rotate(180)"/><rect class="cls-4" x="312.76" y="376.9" width="6.29" height="5.37" transform="translate(590.45 707.23) rotate(180)"/><rect class="cls-4" x="312.76" y="365.43" width="6.29" height="5.37" transform="translate(590.45 684.28) rotate(180)"/><rect class="cls-4" x="312.76" y="353.96" width="6.29" height="5.37" transform="translate(590.45 661.33) rotate(180)"/><rect class="cls-4" x="303.71" y="422.8" width="6.29" height="5.37" transform="translate(572.36 799.02) rotate(180)"/><rect class="cls-4" x="303.71" y="411.32" width="6.29" height="5.37" transform="translate(572.36 776.07) rotate(180)"/><rect class="cls-4" x="303.71" y="399.85" width="6.29" height="5.37" transform="translate(572.36 753.12) rotate(180)"/><rect class="cls-4" x="303.71" y="388.38" width="6.29" height="5.37" transform="translate(572.36 730.17) rotate(180)"/><rect class="cls-4" x="303.71" y="376.9" width="6.29" height="5.37" transform="translate(572.36 707.23) rotate(180)"/><rect class="cls-4" x="303.71" y="365.43" width="6.29" height="5.37" transform="translate(572.36 684.28) rotate(180)"/><rect class="cls-4" x="303.71" y="353.96" width="6.29" height="5.37" transform="translate(572.36 661.33) rotate(180)"/><rect class="cls-4" x="294.69" y="422.8" width="6.29" height="5.37" transform="translate(554.3 799.02) rotate(180)"/><rect class="cls-4" x="294.69" y="411.32" width="6.29" height="5.37" transform="translate(554.3 776.07) rotate(180)"/><rect class="cls-4" x="294.69" y="399.85" width="6.29" height="5.37" transform="translate(554.3 753.12) rotate(180)"/><rect class="cls-4" x="294.69" y="388.38" width="6.29" height="5.37" transform="translate(554.3 730.17) rotate(180)"/><rect class="cls-4" x="294.69" y="376.9" width="6.29" height="5.37" transform="translate(554.3 707.23) rotate(180)"/><rect class="cls-4" x="294.69" y="365.43" width="6.29" height="5.37" transform="translate(554.3 684.28) rotate(180)"/><rect class="cls-4" x="294.69" y="353.96" width="6.29" height="5.37" transform="translate(554.3 661.33) rotate(180)"/><rect class="cls-4" x="250.19" y="286.14" width="26" height="9.14"/><rect class="cls-2" x="250.19" y="280.48" width="14.09" height="5.66"/><rect class="cls-6" x="299.35" y="173.05" width="66" height="202.64"/><rect class="cls-7" x="315.71" y="152.66" width="49.38" height="20.38"/><rect class="cls-6" x="319.82" y="155.81" width="4.22" height="14.09"/><rect class="cls-6" x="327.21" y="155.81" width="4.22" height="14.09"/><rect class="cls-6" x="334.6" y="155.81" width="4.22" height="14.09"/><rect class="cls-6" x="341.99" y="155.81" width="4.22" height="14.09"/><rect class="cls-6" x="349.37" y="155.81" width="4.22" height="14.09"/><rect class="cls-6" x="356.76" y="155.81" width="4.22" height="14.09"/><rect class="cls-6" x="365.1" y="152.66" width="22.46" height="20.38"/><rect class="cls-7" x="368.24" y="155.81" width="3.59" height="14.09"/><rect class="cls-7" x="374.53" y="155.81" width="3.59" height="14.09"/><rect class="cls-7" x="380.81" y="155.81" width="3.59" height="14.09"/><rect class="cls-7" x="365.1" y="173.05" width="33.59" height="202.64"/><rect class="cls-8" x="325.08" y="142.33" width="1.51" height="10.33"/><rect class="cls-8" x="354.22" y="142.33" width="1.51" height="10.33"/><rect class="cls-9" x="318.39" y="124.27" width="44.04" height="18.06"/><rect class="cls-8" x="312.86" y="187" width="12.18" height="18.65"/><rect class="cls-8" x="337.65" y="187" width="12.18" height="18.65"/><rect class="cls-8" x="312.86" y="216.4" width="12.18" height="18.65"/><rect class="cls-8" x="337.65" y="216.4" width="12.18" height="18.65"/><rect class="cls-8" x="312.86" y="245.79" width="12.18" height="18.65"/><rect class="cls-8" x="337.65" y="245.79" width="12.18" height="18.65"/><rect class="cls-8" x="312.86" y="275.18" width="12.18" height="18.65"/><rect class="cls-8" x="337.65" y="275.18" width="12.18" height="18.65"/><rect class="cls-8" x="312.86" y="304.58" width="12.18" height="18.65"/><rect class="cls-8" x="337.65" y="304.58" width="12.18" height="18.65"/><rect class="cls-8" x="312.86" y="333.97" width="12.18" height="18.65"/><rect class="cls-8" x="337.65" y="333.97" width="12.18" height="18.65"/><rect class="cls-8" x="371.27" y="187" width="7" height="18.65"/><rect class="cls-8" x="385.51" y="187" width="7" height="18.65"/><rect class="cls-8" x="371.27" y="216.4" width="7" height="18.65"/><rect class="cls-8" x="385.51" y="216.4" width="7" height="18.65"/><rect class="cls-8" x="371.27" y="245.79" width="7" height="18.65"/><rect class="cls-8" x="385.51" y="245.79" width="7" height="18.65"/><rect class="cls-8" x="371.27" y="275.18" width="7" height="18.65"/><rect class="cls-8" x="385.51" y="275.18" width="7" height="18.65"/><rect class="cls-8" x="371.27" y="304.58" width="7" height="18.65"/><rect class="cls-8" x="385.51" y="304.58" width="7" height="18.65"/><rect class="cls-8" x="371.27" y="333.97" width="7" height="18.65"/><rect class="cls-8" x="385.51" y="333.97" width="7" height="18.65"/><rect class="cls-7" x="155.16" y="115.72" width="35.3" height="259.96"/><rect class="cls-6" x="155.16" y="130.28" width="35.3" height="2.73"/><rect class="cls-8" x="158.79" y="141.05" width="6.5" height="15.2"/><rect class="cls-8" x="158.79" y="160.23" width="6.5" height="15.2"/><rect class="cls-8" x="158.79" y="179.4" width="6.5" height="15.2"/><rect class="cls-8" x="158.79" y="198.57" width="6.5" height="15.2"/><rect class="cls-8" x="158.79" y="217.75" width="6.5" height="15.2"/><rect class="cls-8" x="158.79" y="236.93" width="6.5" height="15.2"/><rect class="cls-8" x="158.79" y="256.09" width="6.5" height="15.2"/><rect class="cls-8" x="158.79" y="275.27" width="6.5" height="15.2"/><rect class="cls-8" x="158.79" y="294.45" width="6.5" height="15.2"/><rect class="cls-8" x="158.79" y="313.61" width="6.5" height="15.2"/><rect class="cls-8" x="158.79" y="332.79" width="6.5" height="15.2"/><rect class="cls-8" x="158.79" y="351.97" width="6.5" height="15.2"/><rect class="cls-8" x="158.79" y="141.05" width="6.5" height="15.2"/><rect class="cls-8" x="158.79" y="160.23" width="6.5" height="15.2"/><rect class="cls-8" x="158.79" y="179.4" width="6.5" height="15.2"/><rect class="cls-8" x="158.79" y="198.57" width="6.5" height="15.2"/><rect class="cls-8" x="158.79" y="217.75" width="6.5" height="15.2"/><rect class="cls-8" x="158.79" y="236.93" width="6.5" height="15.2"/><rect class="cls-8" x="158.79" y="256.09" width="6.5" height="15.2"/><rect class="cls-8" x="158.79" y="275.27" width="6.5" height="15.2"/><rect class="cls-8" x="158.79" y="294.45" width="6.5" height="15.2"/><rect class="cls-8" x="158.79" y="313.61" width="6.5" height="15.2"/><rect class="cls-8" x="158.79" y="332.79" width="6.5" height="15.2"/><rect class="cls-8" x="158.79" y="351.97" width="6.5" height="15.2"/><rect class="cls-8" x="169.56" y="141.05" width="6.5" height="15.2"/><rect class="cls-8" x="169.56" y="160.23" width="6.5" height="15.2"/><rect class="cls-8" x="169.56" y="179.4" width="6.5" height="15.2"/><rect class="cls-8" x="169.56" y="198.57" width="6.5" height="15.2"/><rect class="cls-8" x="169.56" y="217.75" width="6.5" height="15.2"/><rect class="cls-8" x="169.56" y="236.93" width="6.5" height="15.2"/><rect class="cls-8" x="169.56" y="256.09" width="6.5" height="15.2"/><rect class="cls-8" x="169.56" y="275.27" width="6.5" height="15.2"/><rect class="cls-8" x="169.56" y="294.45" width="6.5" height="15.2"/><rect class="cls-8" x="169.56" y="313.61" width="6.5" height="15.2"/><rect class="cls-8" x="169.56" y="332.79" width="6.5" height="15.2"/><rect class="cls-8" x="169.56" y="351.97" width="6.5" height="15.2"/><rect class="cls-8" x="169.56" y="141.05" width="6.5" height="15.2"/><rect class="cls-8" x="169.56" y="160.23" width="6.5" height="15.2"/><rect class="cls-8" x="169.56" y="179.4" width="6.5" height="15.2"/><rect class="cls-8" x="169.56" y="198.57" width="6.5" height="15.2"/><rect class="cls-8" x="169.56" y="217.75" width="6.5" height="15.2"/><rect class="cls-8" x="169.56" y="236.93" width="6.5" height="15.2"/><rect class="cls-8" x="169.56" y="256.09" width="6.5" height="15.2"/><rect class="cls-8" x="169.56" y="275.27" width="6.5" height="15.2"/><rect class="cls-8" x="169.56" y="294.45" width="6.5" height="15.2"/><rect class="cls-8" x="169.56" y="313.61" width="6.5" height="15.2"/><rect class="cls-8" x="169.56" y="332.79" width="6.5" height="15.2"/><rect class="cls-8" x="169.56" y="351.97" width="6.5" height="15.2"/><rect class="cls-8" x="180.32" y="141.05" width="6.5" height="15.2"/><rect class="cls-8" x="180.32" y="160.23" width="6.5" height="15.2"/><rect class="cls-8" x="180.32" y="179.4" width="6.5" height="15.2"/><rect class="cls-8" x="180.32" y="198.57" width="6.5" height="15.2"/><rect class="cls-8" x="180.32" y="217.75" width="6.5" height="15.2"/><rect class="cls-8" x="180.32" y="236.93" width="6.5" height="15.2"/><rect class="cls-8" x="180.32" y="256.09" width="6.5" height="15.2"/><rect class="cls-8" x="180.32" y="275.27" width="6.5" height="15.2"/><rect class="cls-8" x="180.32" y="294.45" width="6.5" height="15.2"/><rect class="cls-8" x="180.32" y="313.61" width="6.5" height="15.2"/><rect class="cls-8" x="180.32" y="332.79" width="6.5" height="15.2"/><rect class="cls-8" x="180.32" y="351.97" width="6.5" height="15.2"/><rect class="cls-8" x="180.32" y="141.05" width="6.5" height="15.2"/><rect class="cls-8" x="180.32" y="160.23" width="6.5" height="15.2"/><rect class="cls-8" x="180.32" y="179.4" width="6.5" height="15.2"/><rect class="cls-8" x="180.32" y="198.57" width="6.5" height="15.2"/><rect class="cls-8" x="180.32" y="217.75" width="6.5" height="15.2"/><rect class="cls-8" x="180.32" y="236.93" width="6.5" height="15.2"/><rect class="cls-8" x="180.32" y="256.09" width="6.5" height="15.2"/><rect class="cls-8" x="180.32" y="275.27" width="6.5" height="15.2"/><rect class="cls-8" x="180.32" y="294.45" width="6.5" height="15.2"/><rect class="cls-8" x="180.32" y="313.61" width="6.5" height="15.2"/><rect class="cls-8" x="180.32" y="332.79" width="6.5" height="15.2"/><rect class="cls-8" x="180.32" y="351.97" width="6.5" height="15.2"/><rect class="cls-6" x="94.81" y="115.72" width="60.35" height="259.96"/><rect class="cls-7" x="94.81" y="130.28" width="60.35" height="2.73"/><rect class="cls-7" x="116.32" y="101.12" width="38.84" height="14.6"/><rect class="cls-8" x="196.52" y="153.07" width="18.25" height="14.6" transform="translate(369.92 268.79) rotate(180)"/><rect class="cls-8" x="101.28" y="141.05" width="10.55" height="15.2"/><rect class="cls-8" x="101.28" y="160.23" width="10.55" height="15.2"/><rect class="cls-8" x="101.28" y="179.4" width="10.55" height="15.2"/><rect class="cls-8" x="101.28" y="198.57" width="10.55" height="15.2"/><rect class="cls-8" x="101.28" y="217.75" width="10.55" height="15.2"/><rect class="cls-8" x="101.28" y="236.93" width="10.55" height="15.2"/><rect class="cls-8" x="101.28" y="256.09" width="10.55" height="15.2"/><rect class="cls-8" x="101.28" y="275.27" width="10.55" height="15.2"/><rect class="cls-8" x="101.28" y="294.45" width="10.55" height="15.2"/><rect class="cls-8" x="101.28" y="313.61" width="10.55" height="15.2"/><rect class="cls-8" x="101.28" y="332.79" width="10.55" height="15.2"/><rect class="cls-8" x="101.28" y="351.97" width="10.55" height="15.2"/><rect class="cls-8" x="101.28" y="141.05" width="10.55" height="15.2"/><rect class="cls-8" x="101.28" y="160.23" width="10.55" height="15.2"/><rect class="cls-8" x="101.28" y="179.4" width="10.55" height="15.2"/><rect class="cls-8" x="101.28" y="198.57" width="10.55" height="15.2"/><rect class="cls-8" x="101.28" y="217.75" width="10.55" height="15.2"/><rect class="cls-8" x="101.28" y="236.93" width="10.55" height="15.2"/><rect class="cls-8" x="101.28" y="256.09" width="10.55" height="15.2"/><rect class="cls-8" x="101.28" y="275.27" width="10.55" height="15.2"/><rect class="cls-8" x="101.28" y="294.45" width="10.55" height="15.2"/><rect class="cls-8" x="101.28" y="313.61" width="10.55" height="15.2"/><rect class="cls-8" x="101.28" y="332.79" width="10.55" height="15.2"/><rect class="cls-8" x="101.28" y="351.97" width="10.55" height="15.2"/><rect class="cls-8" x="118.75" y="141.05" width="10.55" height="15.2"/><rect class="cls-8" x="118.75" y="160.23" width="10.55" height="15.2"/><rect class="cls-8" x="118.75" y="179.4" width="10.55" height="15.2"/><rect class="cls-8" x="118.75" y="198.57" width="10.55" height="15.2"/><rect class="cls-8" x="118.75" y="217.75" width="10.55" height="15.2"/><rect class="cls-8" x="118.75" y="236.93" width="10.55" height="15.2"/><rect class="cls-8" x="118.75" y="256.09" width="10.55" height="15.2"/><rect class="cls-8" x="118.75" y="275.27" width="10.55" height="15.2"/><rect class="cls-8" x="118.75" y="294.45" width="10.55" height="15.2"/><rect class="cls-8" x="118.75" y="313.61" width="10.55" height="15.2"/><rect class="cls-8" x="118.75" y="332.79" width="10.55" height="15.2"/><rect class="cls-8" x="118.75" y="351.97" width="10.55" height="15.2"/><rect class="cls-8" x="118.75" y="141.05" width="10.55" height="15.2"/><rect class="cls-8" x="118.75" y="160.23" width="10.55" height="15.2"/><rect class="cls-8" x="118.75" y="179.4" width="10.55" height="15.2"/><rect class="cls-8" x="118.75" y="198.57" width="10.55" height="15.2"/><rect class="cls-8" x="118.75" y="217.75" width="10.55" height="15.2"/><rect class="cls-8" x="118.75" y="236.93" width="10.55" height="15.2"/><rect class="cls-8" x="118.75" y="256.09" width="10.55" height="15.2"/><rect class="cls-8" x="118.75" y="275.27" width="10.55" height="15.2"/><rect class="cls-8" x="118.75" y="294.45" width="10.55" height="15.2"/><rect class="cls-8" x="118.75" y="313.61" width="10.55" height="15.2"/><rect class="cls-8" x="118.75" y="332.79" width="10.55" height="15.2"/><rect class="cls-8" x="118.75" y="351.97" width="10.55" height="15.2"/><rect class="cls-8" x="136.23" y="141.05" width="10.55" height="15.2"/><rect class="cls-8" x="136.23" y="160.23" width="10.55" height="15.2"/><rect class="cls-8" x="136.23" y="179.4" width="10.55" height="15.2"/><rect class="cls-8" x="136.23" y="198.57" width="10.55" height="15.2"/><rect class="cls-8" x="136.23" y="217.75" width="10.55" height="15.2"/><rect class="cls-8" x="136.23" y="236.93" width="10.55" height="15.2"/><rect class="cls-8" x="136.23" y="256.09" width="10.55" height="15.2"/><rect class="cls-8" x="136.23" y="275.27" width="10.55" height="15.2"/><rect class="cls-8" x="136.23" y="294.45" width="10.55" height="15.2"/><rect class="cls-8" x="136.23" y="313.61" width="10.55" height="15.2"/><rect class="cls-8" x="136.23" y="332.79" width="10.55" height="15.2"/><rect class="cls-8" x="136.23" y="351.97" width="10.55" height="15.2"/><rect class="cls-8" x="136.23" y="141.05" width="10.55" height="15.2"/><rect class="cls-8" x="136.23" y="160.23" width="10.55" height="15.2"/><rect class="cls-8" x="136.23" y="179.4" width="10.55" height="15.2"/><rect class="cls-8" x="136.23" y="198.57" width="10.55" height="15.2"/><rect class="cls-8" x="136.23" y="217.75" width="10.55" height="15.2"/><rect class="cls-8" x="136.23" y="236.93" width="10.55" height="15.2"/><rect class="cls-8" x="136.23" y="256.09" width="10.55" height="15.2"/><rect class="cls-8" x="136.23" y="275.27" width="10.55" height="15.2"/><rect class="cls-8" x="136.23" y="294.45" width="10.55" height="15.2"/><rect class="cls-8" x="136.23" y="313.61" width="10.55" height="15.2"/><rect class="cls-8" x="136.23" y="332.79" width="10.55" height="15.2"/><rect class="cls-8" x="136.23" y="351.97" width="10.55" height="15.2"/><polygon class="cls-9" points="71.91 375.68 24.07 375.68 24.07 225.61 71.91 194.6 71.91 375.68"/><polygon class="cls-9" points="65.76 375.68 29.45 375.68 29.45 229.81 65.76 206.28 65.76 375.68"/><polygon class="cls-10" points="65.76 375.68 29.45 375.68 29.45 229.81 65.76 206.28 65.76 375.68"/><g class="cls-11"><rect x="33.61" y="232.33" width="32.15" height="1.16"/><rect x="33.61" y="241.81" width="32.15" height="1.16"/><rect x="33.61" y="251.29" width="32.15" height="1.16"/><rect x="33.61" y="260.77" width="32.15" height="1.16"/><rect x="33.61" y="270.25" width="32.15" height="1.16"/><rect x="33.61" y="279.73" width="32.15" height="1.16"/><rect x="33.61" y="289.21" width="32.15" height="1.16"/><rect x="33.61" y="298.69" width="32.15" height="1.16"/><rect x="33.61" y="308.17" width="32.15" height="1.16"/><rect x="33.61" y="317.65" width="32.15" height="1.16"/><rect x="33.61" y="327.13" width="32.15" height="1.16"/><rect x="33.61" y="336.61" width="32.15" height="1.16"/><rect x="33.61" y="346.09" width="32.15" height="1.16"/><rect x="33.61" y="355.57" width="32.15" height="1.16"/><rect x="33.61" y="365.05" width="32.15" height="1.16"/><rect x="33.61" y="374.53" width="32.15" height="1.16"/><rect x="13.86" y="349.87" width="154.37" height="1.16" transform="translate(-300.77 389.55) rotate(-90)"/></g><polygon class="cls-9" points="65.76 206.27 65.76 211.5 33.61 232.33 33.61 375.68 29.45 375.68 29.45 229.8 65.76 206.27"/><polygon class="cls-12" points="65.76 206.27 65.76 211.5 33.61 232.33 33.61 375.68 29.45 375.68 29.45 229.8 65.76 206.27"/><rect class="cls-9" x="71.91" y="194.6" width="42.15" height="181.08"/><rect class="cls-12" x="71.91" y="194.6" width="42.15" height="181.08"/><g class="cls-13"><rect x="76" y="206.27" width="33.97" height="4.1"/><rect x="76" y="215.56" width="33.97" height="4.1"/><rect x="76" y="224.85" width="33.97" height="4.1"/><rect x="76" y="234.13" width="33.97" height="4.1"/><rect x="76" y="243.42" width="33.97" height="4.1"/><rect x="76" y="252.7" width="33.97" height="4.1"/><rect x="76" y="261.99" width="33.97" height="4.1"/><rect x="76" y="271.28" width="33.97" height="4.1"/><rect x="76" y="280.56" width="33.97" height="4.1"/><rect x="76" y="289.85" width="33.97" height="4.1"/><rect x="76" y="299.14" width="33.97" height="4.1"/><rect x="76" y="308.42" width="33.97" height="4.1"/><rect x="76" y="317.71" width="33.97" height="4.1"/><rect x="76" y="326.99" width="33.97" height="4.1"/><rect x="76" y="336.28" width="33.97" height="4.1"/><rect x="76" y="345.57" width="33.97" height="4.1"/><rect x="76" y="354.85" width="33.97" height="4.1"/><rect x="76" y="364.14" width="33.97" height="4.1"/></g><rect class="cls-9" x="250.41" y="183.96" width="37.92" height="191.73"/><rect class="cls-12" x="250.41" y="183.96" width="37.92" height="191.73"/><rect class="cls-9" x="291.77" y="229.62" width="40.19" height="6.28" transform="translate(582.36 413.58) rotate(180)"/><rect class="cls-9" x="291.77" y="219.81" width="34.08" height="9.81" transform="translate(576.25 397.49) rotate(180)"/><rect class="cls-12" x="291.77" y="219.81" width="34.08" height="9.81" transform="translate(576.25 397.49) rotate(180)"/><rect class="cls-9" x="291.77" y="198.18" width="26.07" height="21.64" transform="translate(568.24 366.04) rotate(180)"/><rect class="cls-10" x="291.77" y="198.18" width="26.07" height="21.64" transform="translate(568.24 366.04) rotate(180)"/><g class="cls-11"><rect x="254.04" y="191.22" width="5.14" height="20.17"/></g><g class="cls-11"><rect x="254.04" y="218.7" width="5.14" height="20.17"/></g><g class="cls-11"><rect x="254.04" y="246.17" width="5.14" height="20.17"/></g><g class="cls-11"><rect x="254.04" y="273.64" width="5.14" height="20.17"/></g><g class="cls-11"><rect x="254.04" y="301.11" width="5.14" height="20.17"/></g><g class="cls-11"><rect x="254.04" y="328.59" width="5.14" height="20.17"/></g><g class="cls-11"><rect x="262.54" y="191.22" width="5.14" height="20.17"/></g><g class="cls-11"><rect x="262.54" y="218.7" width="5.14" height="20.17"/></g><g class="cls-11"><rect x="262.54" y="246.17" width="5.14" height="20.17"/></g><g class="cls-11"><rect x="262.54" y="273.64" width="5.14" height="20.17"/></g><g class="cls-11"><rect x="262.54" y="301.11" width="5.14" height="20.17"/></g><g class="cls-11"><rect x="262.54" y="328.59" width="5.14" height="20.17"/></g><g class="cls-11"><rect x="271.05" y="191.22" width="5.14" height="20.17"/></g><g class="cls-11"><rect x="271.05" y="218.7" width="5.14" height="20.17"/></g><g class="cls-11"><rect x="271.05" y="246.17" width="5.14" height="20.17"/></g><g class="cls-11"><rect x="271.05" y="273.64" width="5.14" height="20.17"/></g><g class="cls-11"><rect x="271.05" y="301.11" width="5.14" height="20.17"/></g><g class="cls-11"><rect x="271.05" y="328.59" width="5.14" height="20.17"/></g><g class="cls-11"><rect x="279.55" y="191.22" width="5.14" height="20.17"/></g><g class="cls-11"><rect x="279.55" y="218.7" width="5.14" height="20.17"/></g><g class="cls-11"><rect x="279.55" y="246.17" width="5.14" height="20.17"/></g><g class="cls-11"><rect x="279.55" y="273.64" width="5.14" height="20.17"/></g><g class="cls-11"><rect x="279.55" y="301.11" width="5.14" height="20.17"/></g><g class="cls-11"><rect x="279.55" y="328.59" width="5.14" height="20.17"/></g><rect class="cls-9" x="172.67" y="183.96" width="77.73" height="191.73"/><rect class="cls-9" x="176.39" y="167.86" width="74.01" height="9.81"/><rect class="cls-9" x="194.71" y="146.23" width="55.69" height="21.64"/><rect class="cls-12" x="194.71" y="146.23" width="55.69" height="21.64"/><rect class="cls-9" x="170.34" y="177.67" width="80.06" height="6.28"/><rect class="cls-12" x="170.34" y="177.67" width="80.06" height="6.28"/><g class="cls-11"><rect x="180.1" y="191.22" width="10.55" height="20.17"/></g><g class="cls-11"><rect x="180.1" y="218.7" width="10.55" height="20.17"/></g><g class="cls-11"><rect x="180.1" y="246.17" width="10.55" height="20.17"/></g><g class="cls-11"><rect x="180.1" y="273.64" width="10.55" height="20.17"/></g><g class="cls-11"><rect x="180.1" y="301.11" width="10.55" height="20.17"/></g><g class="cls-11"><rect x="180.1" y="328.59" width="10.55" height="20.17"/></g><g class="cls-11"><rect x="197.54" y="191.22" width="10.55" height="20.17"/></g><g class="cls-11"><rect x="197.54" y="218.7" width="10.55" height="20.17"/></g><g class="cls-11"><rect x="197.54" y="246.17" width="10.55" height="20.17"/></g><g class="cls-11"><rect x="197.54" y="273.64" width="10.55" height="20.17"/></g><g class="cls-11"><rect x="197.54" y="301.11" width="10.55" height="20.17"/></g><g class="cls-11"><rect x="197.54" y="328.59" width="10.55" height="20.17"/></g><g class="cls-11"><rect x="214.98" y="191.22" width="10.55" height="20.17"/></g><g class="cls-11"><rect x="214.98" y="218.7" width="10.55" height="20.17"/></g><g class="cls-11"><rect x="214.98" y="246.17" width="10.55" height="20.17"/></g><g class="cls-11"><rect x="214.98" y="273.64" width="10.55" height="20.17"/></g><g class="cls-11"><rect x="214.98" y="301.11" width="10.55" height="20.17"/></g><g class="cls-11"><rect x="214.98" y="328.59" width="10.55" height="20.17"/></g><g class="cls-11"><rect x="232.42" y="191.22" width="10.55" height="20.17"/></g><g class="cls-11"><rect x="232.42" y="218.7" width="10.55" height="20.17"/></g><g class="cls-11"><rect x="232.42" y="246.17" width="10.55" height="20.17"/></g><g class="cls-11"><rect x="232.42" y="273.64" width="10.55" height="20.17"/></g><g class="cls-11"><rect x="232.42" y="301.11" width="10.55" height="20.17"/></g><g class="cls-11"><rect x="232.42" y="328.59" width="10.55" height="20.17"/></g><rect class="cls-10" x="197.54" y="356.68" width="27.99" height="19"/><rect class="cls-9" x="328.21" y="266.35" width="37.92" height="109.33"/><rect class="cls-12" x="328.21" y="266.35" width="37.92" height="109.33"/><rect class="cls-9" x="369.57" y="312.02" width="40.19" height="6.28" transform="translate(737.97 578.37) rotate(180)"/><rect class="cls-9" x="369.57" y="302.21" width="34.08" height="9.81" transform="translate(731.85 562.28) rotate(180)"/><rect class="cls-12" x="369.57" y="302.21" width="34.08" height="9.81" transform="translate(731.85 562.28) rotate(180)"/><g class="cls-11"><rect x="331.84" y="273.62" width="5.14" height="20.17"/></g><g class="cls-11"><rect x="331.84" y="301.09" width="5.14" height="20.17"/></g><g class="cls-11"><rect x="331.84" y="328.57" width="5.14" height="20.17"/></g><g class="cls-11"><rect x="340.35" y="273.62" width="5.14" height="20.17"/></g><g class="cls-11"><rect x="340.35" y="301.09" width="5.14" height="20.17"/></g><g class="cls-11"><rect x="340.35" y="328.57" width="5.14" height="20.17"/></g><g class="cls-11"><rect x="348.85" y="273.62" width="5.14" height="20.17"/></g><g class="cls-11"><rect x="348.85" y="301.09" width="5.14" height="20.17"/></g><g class="cls-11"><rect x="348.85" y="328.57" width="5.14" height="20.17"/></g><g class="cls-11"><rect x="357.35" y="273.62" width="5.14" height="20.17"/></g><g class="cls-11"><rect x="357.35" y="301.09" width="5.14" height="20.17"/></g><g class="cls-11"><rect x="357.35" y="328.57" width="5.14" height="20.17"/></g><rect class="cls-9" x="250.47" y="266.35" width="77.73" height="109.33"/><rect class="cls-9" x="254.2" y="250.26" width="74.01" height="9.81"/><rect class="cls-9" x="248.15" y="260.07" width="80.06" height="6.28"/><rect class="cls-12" x="248.15" y="260.07" width="80.06" height="6.28"/><g class="cls-11"><rect x="257.91" y="273.62" width="10.55" height="20.17"/></g><g class="cls-11"><rect x="257.91" y="301.09" width="10.55" height="20.17"/></g><g class="cls-11"><rect x="257.91" y="328.57" width="10.55" height="20.17"/></g><g class="cls-11"><rect x="275.34" y="273.62" width="10.55" height="20.17"/></g><g class="cls-11"><rect x="275.34" y="301.09" width="10.55" height="20.17"/></g><g class="cls-11"><rect x="275.34" y="328.57" width="10.55" height="20.17"/></g><g class="cls-11"><rect x="292.78" y="273.62" width="10.55" height="20.17"/></g><g class="cls-11"><rect x="292.78" y="301.09" width="10.55" height="20.17"/></g><g class="cls-11"><rect x="292.78" y="328.57" width="10.55" height="20.17"/></g><g class="cls-11"><rect x="310.22" y="273.62" width="10.55" height="20.17"/></g><g class="cls-11"><rect x="310.22" y="301.09" width="10.55" height="20.17"/></g><g class="cls-11"><rect x="310.22" y="328.57" width="10.55" height="20.17"/></g></g><g id="Birds"><path class="cls-8" d="M339.21,163.8a14.23,14.23,0,0,0-1.6-.68,6.5,6.5,0,0,0-1.74-.4,1.37,1.37,0,0,0-.55.06.56.56,0,0,0-.16.07l-.11.08-.19.16a7.6,7.6,0,0,0-.63.64c-.4.44-.75.9-1.1,1.37l.44-.15a13.53,13.53,0,0,0-1.79-.37,7,7,0,0,0-.93-.07,2.77,2.77,0,0,0-.49,0,1.47,1.47,0,0,0-.27.06,1.66,1.66,0,0,0-.27.13,3.21,3.21,0,0,0-.7.67c-.19.24-.36.49-.53.75a11.42,11.42,0,0,0-.83,1.59c.39-.46.76-.92,1.15-1.36.19-.21.39-.43.6-.62a2.76,2.76,0,0,1,.63-.49,1.59,1.59,0,0,1,.69-.07,6.07,6.07,0,0,1,.84.12c.56.1,1.13.24,1.68.38l.27.08.16-.23c.32-.46.67-.91,1-1.35.17-.22.35-.43.53-.62l.14-.13.07-.05,0,0a1,1,0,0,1,.31-.06,8.77,8.77,0,0,1,1.65.16C338.08,163.58,338.64,163.7,339.21,163.8Z" transform="translate(-41.36 -51.95)"/><path class="cls-8" d="M332.92,180.82a18.67,18.67,0,0,0-2.16-1.47,10,10,0,0,0-2.45-1.11,2.49,2.49,0,0,0-.81-.07,1.54,1.54,0,0,0-.27.07l-.18.08-.32.17c-.4.24-.76.5-1.12.76-.71.54-1.35,1.11-2,1.7l.68-.09a19,19,0,0,0-2.5-1.07,9.94,9.94,0,0,0-1.35-.37,4.4,4.4,0,0,0-.74-.1,2.88,2.88,0,0,0-.41,0,3.39,3.39,0,0,0-.43.11,4.57,4.57,0,0,0-1.23.79,9.8,9.8,0,0,0-1,.94,16.79,16.79,0,0,0-1.69,2.09c.7-.56,1.38-1.13,2.08-1.65.35-.27.7-.52,1.06-.75a4.43,4.43,0,0,1,1.07-.53,2.48,2.48,0,0,1,1,.1,10.46,10.46,0,0,1,1.19.41c.8.31,1.6.69,2.36,1.06l.38.2.3-.29c.61-.58,1.25-1.15,1.89-1.69a11,11,0,0,1,1-.75,1.58,1.58,0,0,1,.24-.15l.11-.06s0,0,0,0a1.22,1.22,0,0,1,.47,0,12.48,12.48,0,0,1,2.37.71C331.31,180.16,332.11,180.5,332.92,180.82Z" transform="translate(-41.36 -51.95)"/><path class="cls-8" d="M158.67,141.45a14.09,14.09,0,0,0-1.47-.94,6.81,6.81,0,0,0-1.66-.68,1.54,1.54,0,0,0-.54,0,.61.61,0,0,0-.18,0l-.12.06-.21.12c-.26.17-.5.35-.73.53-.46.37-.88.77-1.3,1.18l.45-.08a13,13,0,0,0-1.7-.66,6.37,6.37,0,0,0-.91-.22,3.87,3.87,0,0,0-.49-.05l-.27,0a2.46,2.46,0,0,0-.29.09,2.77,2.77,0,0,0-.8.55,7.73,7.73,0,0,0-.64.64,10.61,10.61,0,0,0-1.08,1.44c.45-.39.89-.79,1.35-1.15.23-.18.45-.36.69-.52a3.23,3.23,0,0,1,.7-.38,1.59,1.59,0,0,1,.7.05,5.7,5.7,0,0,1,.8.25c.54.19,1.08.42,1.6.66l.26.11.19-.19c.39-.41.81-.8,1.22-1.17a7.21,7.21,0,0,1,.63-.52l.16-.11.07,0h0a.73.73,0,0,1,.31,0,9.07,9.07,0,0,1,1.6.43C157.58,141,158.12,141.25,158.67,141.45Z" transform="translate(-41.36 -51.95)"/><path class="cls-8" d="M172.93,139.14a18.61,18.61,0,0,0-1.61-2,10.26,10.26,0,0,0-2-1.78,2.49,2.49,0,0,0-.75-.31h-.28l-.19,0-.36.07c-.46.11-.88.25-1.3.39-.83.3-1.62.66-2.42,1l.68.11a20.68,20.68,0,0,0-2.08-1.77,11.34,11.34,0,0,0-1.18-.75,5.91,5.91,0,0,0-.67-.31,2.6,2.6,0,0,0-.4-.1,3.25,3.25,0,0,0-.44,0,4.85,4.85,0,0,0-1.41.39c-.43.18-.83.39-1.23.6a17.81,17.81,0,0,0-2.23,1.51c.84-.33,1.65-.68,2.48-1a11.12,11.12,0,0,1,1.24-.39,4.29,4.29,0,0,1,1.17-.2,2.57,2.57,0,0,1,1,.41,11.45,11.45,0,0,1,1,.75c.67.53,1.32,1.12,1.94,1.71l.31.3.37-.19c.75-.38,1.53-.73,2.3-1a9,9,0,0,1,1.15-.43l.27-.08.13,0h0a1.31,1.31,0,0,1,.45.14,12.36,12.36,0,0,1,2,1.39C171.6,138,172.26,138.59,172.93,139.14Z" transform="translate(-41.36 -51.95)"/><path class="cls-8" d="M353.27,176.64a17.47,17.47,0,0,0-1.62-2,9.63,9.63,0,0,0-2-1.78,2.07,2.07,0,0,0-.75-.31,1.23,1.23,0,0,0-.28,0l-.19,0a2.09,2.09,0,0,0-.36.07,10.35,10.35,0,0,0-1.3.39c-.83.3-1.62.65-2.42,1l.68.11a19.45,19.45,0,0,0-2.08-1.77,8.77,8.77,0,0,0-1.18-.75,4.57,4.57,0,0,0-.67-.31c-.12,0-.27-.07-.4-.11a3.24,3.24,0,0,0-.44,0,4.85,4.85,0,0,0-1.41.38,12.79,12.79,0,0,0-1.23.61,17.74,17.74,0,0,0-2.23,1.5c.84-.33,1.65-.67,2.48-1,.41-.15.82-.29,1.24-.4a4.25,4.25,0,0,1,1.17-.19,2.42,2.42,0,0,1,1,.41,9.63,9.63,0,0,1,1,.74c.67.53,1.32,1.13,1.94,1.71l.31.3.37-.19c.75-.37,1.53-.72,2.3-1a10.74,10.74,0,0,1,1.15-.43c.09,0,.19-.06.27-.07l.13,0s0,0,0,0a1.31,1.31,0,0,1,.45.14,12.36,12.36,0,0,1,2.05,1.39C351.94,175.54,352.6,176.1,353.27,176.64Z" transform="translate(-41.36 -51.95)"/></g><g id="Plant"><path class="cls-7" d="M88.42,427.63s-.84-3.92-2.52-4.53-2.71,1.16-2.71,1.16-.39-3.75-2.78-4.88-4.17,1.18-4.17,1.18-1.83-4.76-5.1-4.76-4.91,7-4.91,7-1.93-2.07-3.91-.9-2,5.77-2,5.77Z" transform="translate(-41.36 -51.95)"/><path class="cls-6" d="M367.26,427.63s-.84-3.92-2.52-4.53-2.7,1.16-2.7,1.16-.4-3.75-2.78-4.88-4.17,1.18-4.17,1.18-1.83-4.76-5.1-4.76-4.92,7-4.92,7-1.92-2.07-3.9-.9-2,5.77-2,5.77Z" transform="translate(-41.36 -51.95)"/><path class="cls-7" d="M162.7,427.63H133.15s1-4.16,2.93-4.46a2.91,2.91,0,0,1,2.88,1.64s-.09-5.81,3.57-6.8,6.72,4.14,6.72,4.14,2.3-2.92,5.42-2.74,3.93,5,3.93,5S161.44,422.76,162.7,427.63Z" transform="translate(-41.36 -51.95)"/><path class="cls-6" d="M62.16,427.63H46.61s0-2.31,1.56-2.93a2.09,2.09,0,0,1,2.44.59s.62-4.26,3.47-4.26,4.22,3.67,4.22,3.67a2.18,2.18,0,0,1,2.22-.9C62.1,424,62.16,427.63,62.16,427.63Z" transform="translate(-41.36 -51.95)"/><path class="cls-6" d="M174.9,427.63H159.35s0-2.31,1.56-2.93a2.09,2.09,0,0,1,2.44.59S164,421,166.83,421,171,424.7,171,424.7a2.18,2.18,0,0,1,2.22-.9C174.84,424,174.9,427.63,174.9,427.63Z" transform="translate(-41.36 -51.95)"/><path class="cls-6" d="M430.7,427.63H415.15s0-2.31,1.56-2.93a2.09,2.09,0,0,1,2.44.59s.62-4.26,3.47-4.26,4.22,3.67,4.22,3.67a2.17,2.17,0,0,1,2.22-.9C430.64,424,430.7,427.63,430.7,427.63Z" transform="translate(-41.36 -51.95)"/><path class="cls-7" d="M453.39,427.63H427.75s.06-3.81,2.58-4.83a3.44,3.44,0,0,1,4,1s1-7,5.73-7S447,422.8,447,422.8a3.58,3.58,0,0,1,3.66-1.48C453.29,421.66,453.39,427.63,453.39,427.63Z" transform="translate(-41.36 -51.95)"/></g><g id="Floor"><rect class="cls-4" y="375.68" width="417.27" height="7.27"/><path class="cls-8" d="M70.62,427.63a13.73,13.73,0,0,1,0,7.27,12,12,0,0,1-.5-3.63A12.34,12.34,0,0,1,70.62,427.63Z" transform="translate(-41.36 -51.95)"/><path class="cls-8" d="M103.23,427.63a12.34,12.34,0,0,1,.5,3.64,12,12,0,0,1-.5,3.63,13.73,13.73,0,0,1,0-7.27Z" transform="translate(-41.36 -51.95)"/><path class="cls-8" d="M135.85,427.63a13.73,13.73,0,0,1,0,7.27,12,12,0,0,1-.5-3.63A12.34,12.34,0,0,1,135.85,427.63Z" transform="translate(-41.36 -51.95)"/><path class="cls-8" d="M168.46,427.63a12.34,12.34,0,0,1,.5,3.64,12,12,0,0,1-.5,3.63,13.73,13.73,0,0,1,0-7.27Z" transform="translate(-41.36 -51.95)"/><path class="cls-8" d="M201.08,427.63a13.73,13.73,0,0,1,0,7.27,12,12,0,0,1-.5-3.63A12.34,12.34,0,0,1,201.08,427.63Z" transform="translate(-41.36 -51.95)"/><path class="cls-8" d="M233.69,427.63a12.34,12.34,0,0,1,.5,3.64,12,12,0,0,1-.5,3.63,13.73,13.73,0,0,1,0-7.27Z" transform="translate(-41.36 -51.95)"/><path class="cls-8" d="M266.31,427.63a13.73,13.73,0,0,1,0,7.27,12,12,0,0,1-.5-3.63A12.34,12.34,0,0,1,266.31,427.63Z" transform="translate(-41.36 -51.95)"/><path class="cls-8" d="M298.92,427.63a12.34,12.34,0,0,1,.5,3.64,12,12,0,0,1-.5,3.63,13.73,13.73,0,0,1,0-7.27Z" transform="translate(-41.36 -51.95)"/><path class="cls-8" d="M331.54,427.63a13.73,13.73,0,0,1,0,7.27,12,12,0,0,1-.5-3.63A12.34,12.34,0,0,1,331.54,427.63Z" transform="translate(-41.36 -51.95)"/><path class="cls-8" d="M364.15,427.63a12.34,12.34,0,0,1,.5,3.64,12,12,0,0,1-.5,3.63,13.73,13.73,0,0,1,0-7.27Z" transform="translate(-41.36 -51.95)"/><path class="cls-8" d="M396.77,427.63a13.73,13.73,0,0,1,0,7.27,12,12,0,0,1-.5-3.63A12.34,12.34,0,0,1,396.77,427.63Z" transform="translate(-41.36 -51.95)"/><path class="cls-8" d="M429.38,427.63a12.34,12.34,0,0,1,.5,3.64,12,12,0,0,1-.5,3.63,13.73,13.73,0,0,1,0-7.27Z" transform="translate(-41.36 -51.95)"/><polygon class="cls-8" points="3.09 382.95 54.48 382.71 105.86 382.62 208.64 382.45 311.41 382.62 362.8 382.71 414.18 382.95 362.8 383.2 311.41 383.28 208.64 383.45 105.86 383.28 54.48 383.19 3.09 382.95"/></g><g id="Sun"><circle class="cls-14" cx="272.27" cy="106.52" r="31.37" transform="translate(-36.94 171.77) rotate(-45)"/><circle class="cls-9" cx="230.91" cy="54.57" r="19.73"/></g></svg>